<?xml version="1.0" encoding="utf-8"?>
<!-- Generator: Adobe Illustrator 14.0.0, SVG Export Plug-In  -->
<!DOCTYPE svg PUBLIC "-//W3C//DTD SVG 1.1//EN" "http://www.w3.org/Graphics/SVG/1.1/DTD/svg11.dtd" [
	<!ENTITY ns_flows "http://ns.adobe.com/Flows/1.0/">
]>
<svg version="1.1"
	 xmlns="http://www.w3.org/2000/svg" xmlns:xlink="http://www.w3.org/1999/xlink" xmlns:a="http://ns.adobe.com/AdobeSVGViewerExtensions/3.0/"
	 x="0px" y="0px" width="112px" height="25px" viewBox="0 -0.02 112 25" enable-background="new 0 -0.02 112 25"
	 xml:space="preserve">
<defs>
</defs>
<path fill="#FFFFFF" d="M12.29,4.36c-0.27-1.16-0.58-1.91-0.98-2.31c-0.4-0.4-0.96-0.51-2.27-0.51h-1v10.51
	c0,1.89,0.22,2.02,2.18,2.18V15H2.98v-0.78c1.87-0.16,2.09-0.29,2.09-2.18V1.53H4.31c-1.84,0-2.24,0.22-2.56,0.6
	C1.38,2.51,1.11,3.27,0.82,4.38H0C0.09,2.76,0.22,1.13,0.27,0h0.56c0.33,0.49,0.62,0.55,1.27,0.55h8.94c0.58,0,0.89-0.13,1.27-0.55
	h0.56c0.02,0.93,0.13,2.89,0.24,4.31L12.29,4.36z"/>
<path fill="#FFFFFF" d="M14.47,15v-0.78c1.67-0.16,1.87-0.31,1.87-2.18V3.53c0-1.91-0.2-2.04-1.87-2.2V0.55h6.69v0.78
	c-1.67,0.16-1.84,0.29-1.84,2.2v8.51c0,1.87,0.18,2.02,1.84,2.18V15H14.47z"/>
<path fill="#FFFFFF" d="M34.58,15v-0.78c1.67-0.18,1.78-0.33,1.78-2.38l-0.04-8.56H36.2l-4.91,11.56h-0.62L26.14,3.51h-0.09
	l-0.27,5.8c-0.11,1.84-0.09,2.89,0,3.58c0.09,1,0.51,1.2,2,1.33V15h-5.36v-0.78c1.27-0.11,1.67-0.49,1.82-1.29
	c0.13-0.69,0.29-1.87,0.47-4.2l0.35-4.4c0.18-2.51,0.02-2.82-1.89-3V0.55h4.6l4.27,9.74l4.36-9.74h4.49v0.78
	c-1.78,0.18-1.87,0.36-1.82,2.2l0.2,8.31c0.04,2.05,0.16,2.2,1.89,2.38V15H34.58z"/>
<path fill="#FFFFFF" d="M54.47,11.31c-0.16,1-0.6,3.02-0.78,3.69H42.36v-0.78c1.89-0.16,2.11-0.29,2.11-2.18V3.51
	c0-1.93-0.22-2.04-1.8-2.18V0.55h10.47c0.02,0.4,0.13,1.96,0.22,3.33L52.54,4c-0.2-0.78-0.49-1.51-0.89-1.91
	c-0.38-0.4-0.98-0.56-2.22-0.56h-1.07c-0.82,0-0.91,0.05-0.91,0.78v4.71h1.49c1.87,0,2.18-0.11,2.47-1.67h0.8v4.47h-0.8
	c-0.29-1.6-0.58-1.69-2.47-1.69h-1.49V12c0,1.07,0.09,1.6,0.53,1.82c0.4,0.18,1.16,0.22,2,0.22c1.16,0,1.93-0.15,2.44-0.71
	c0.44-0.49,0.84-1.2,1.24-2.18L54.47,11.31z"/>
<path fill="#FFFFFF" d="M66.87,11.25c-0.18,0.96-0.64,3.16-0.82,3.75H55.23v-0.78c1.93-0.16,2.16-0.29,2.16-2.18V3.53
	c0-1.91-0.22-2.04-1.91-2.2V0.55h6.78v0.78c-1.69,0.16-1.89,0.29-1.89,2.2v8.69c0,1.04,0.09,1.42,0.53,1.62
	c0.4,0.16,0.98,0.2,1.67,0.2c0.96,0,1.76-0.15,2.29-0.75c0.4-0.44,0.82-1.16,1.22-2.29L66.87,11.25z"/>
<path fill="#FFFFFF" d="M67.76,15v-0.78c1.67-0.16,1.87-0.31,1.87-2.18V3.53c0-1.91-0.2-2.04-1.87-2.2V0.55h6.69v0.78
	c-1.67,0.16-1.84,0.29-1.84,2.2v8.51c0,1.87,0.18,2.02,1.84,2.18V15H67.76z"/>
<path fill="#FFFFFF" d="M91.43,1.31c-1.2,0.07-1.67,0.38-1.78,1.38c-0.07,0.69-0.2,1.73-0.2,3.71v8.82h-1.07L79.14,4.16h-0.07v4.98
	c0,1.96,0.11,2.96,0.18,3.62c0.11,0.98,0.49,1.4,2.13,1.47V15h-5.44v-0.78c1.25-0.09,1.76-0.44,1.84-1.4
	C77.87,12.09,78,11.09,78,9.13V4.51c0-1.47-0.02-1.87-0.44-2.4c-0.42-0.53-0.91-0.71-1.87-0.8V0.55h4.11l8.51,9.76h0.07V6.4
	c0-1.98-0.11-3.02-0.18-3.67c-0.11-0.96-0.56-1.33-2.2-1.42V0.55h5.42V1.31z"/>
<path fill="#FFFFFF" d="M104.47,11.31c-0.16,1-0.6,3.02-0.78,3.69H92.36v-0.78c1.89-0.16,2.11-0.29,2.11-2.18V3.51
	c0-1.93-0.22-2.04-1.8-2.18V0.55h10.47c0.02,0.4,0.13,1.96,0.22,3.33L102.54,4c-0.2-0.78-0.49-1.51-0.89-1.91
	c-0.38-0.4-0.98-0.56-2.22-0.56h-1.07c-0.82,0-0.91,0.05-0.91,0.78v4.71h1.49c1.87,0,2.18-0.11,2.47-1.67h0.8v4.47h-0.8
	c-0.29-1.6-0.58-1.69-2.47-1.69h-1.49V12c0,1.07,0.09,1.6,0.53,1.82c0.4,0.18,1.16,0.22,2,0.22c1.15,0,1.93-0.15,2.44-0.71
	c0.45-0.49,0.84-1.2,1.25-2.18L104.47,11.31z"/>
<path fill="#FFFFFF" d="M105.87,13.58c0-0.98,0.71-1.69,1.64-1.69c0.96,0,1.65,0.71,1.65,1.69c0,1-0.69,1.69-1.67,1.69
	C106.58,15.27,105.87,14.58,105.87,13.58z"/>
<path fill="#FFFFFF" d="M0.04,25v-5.98h4.26v0.53v0.53H1.28v1.36H3.9v0.51v0.52H1.28V25H0.66H0.04z"/>
<path fill="#FFFFFF" d="M5.02,19.02h0.62h0.63V25H5.65H5.02V19.02z"/>
<path fill="#FFFFFF" d="M7.44,25v-5.98h0.62h0.63v4.92h2.98v0.53V25H7.44z"/>
<path fill="#FFFFFF" d="M13.64,25h-0.58h-0.59v-5.98h0.92h0.92l1.09,4.74h0l1.08-4.74h0.9h0.9V25h-0.58h-0.59v-5.03h0L15.99,25
	h-0.61h-0.62l-1.12-5.14h0V25z"/>
<path fill="#FFFFFF" d="M22.72,20.81c-0.02-0.28-0.15-0.51-0.37-0.68c-0.23-0.17-0.52-0.25-0.89-0.25c-0.32,0-0.57,0.07-0.75,0.21
	c-0.18,0.14-0.27,0.33-0.27,0.58c0,0.18,0.09,0.32,0.28,0.42c0.18,0.1,0.58,0.21,1.18,0.35c0.87,0.2,1.45,0.42,1.75,0.67
	c0.29,0.25,0.44,0.66,0.44,1.22c0,0.56-0.22,1.01-0.66,1.34c-0.44,0.33-1.04,0.49-1.79,0.49c-0.76,0-1.35-0.17-1.77-0.53
	c-0.43-0.35-0.65-0.85-0.68-1.49h1.2c0.01,0.32,0.13,0.56,0.35,0.73s0.52,0.26,0.91,0.26c0.4,0,0.71-0.06,0.93-0.19
	c0.22-0.13,0.34-0.31,0.34-0.53c0-0.23-0.08-0.39-0.24-0.5c-0.16-0.11-0.49-0.21-1.01-0.33c-0.95-0.21-1.58-0.44-1.9-0.69
	c-0.32-0.24-0.48-0.63-0.48-1.14c0-0.58,0.21-1.04,0.63-1.38c0.42-0.34,0.99-0.51,1.7-0.51c0.67,0,1.22,0.18,1.64,0.53
	c0.42,0.35,0.65,0.83,0.7,1.43H22.72z"/>
</svg>
